<svg width="111" height="69" viewBox="0 0 111 69" fill="none" xmlns="http://www.w3.org/2000/svg">
<path d="M18.8562 0.401004L13.8152 13.803C13.7752 13.923 13.6552 14.003 13.5552 14.003H12.4542C12.3342 14.003 12.2342 13.903 12.1932 13.823L9.44717 7.473L6.71317 13.802C6.65217 13.943 6.53317 14.002 6.43317 14.002H5.33217C5.23217 14.002 5.11217 13.942 5.05317 13.802L0.0121713 0.399996C-0.0488287 0.159996 0.131173 2.56348e-06 0.291173 2.56348e-06H2.69117C2.81217 2.56348e-06 2.91217 0.0999995 2.95217 0.2L5.95317 8.082L8.42717 2.131C8.46717 1.991 8.60817 1.931 8.70717 1.931H10.1072H10.1672C10.3072 1.931 10.4072 2.032 10.4472 2.131L12.9142 8.082L15.9142 0.2C15.9752 0.0589995 16.0952 2.56348e-06 16.1952 2.56348e-06H18.5952C18.7562 0.00100256 18.9362 0.181004 18.8562 0.401004Z" transform="translate(19.8081 54.6106)" fill="#F2F2F2"/>
<path d="M9.183 11.582V13.703C9.183 13.863 9.043 14.003 8.883 14.003H1.761H0.301001C0.141001 14.003 -1.06812e-06 13.863 -1.06812e-06 13.703V0.299997C-1.06812e-06 0.139997 0.141001 2.01416e-06 0.301001 2.01416e-06H2.801H8.863C9.023 2.01416e-06 9.143 0.139997 9.143 0.299997V2.421C9.143 2.58 9.023 2.721 8.863 2.721H3.082V5.721H6.883C7.043 5.721 7.183 5.841 7.183 6.001V8.162C7.183 8.321 7.043 8.441 6.883 8.441H3.082V11.282H8.884C9.043 11.282 9.183 11.423 9.183 11.582Z" transform="translate(41.6193 54.6116)" fill="#F2F2F2"/>
<path d="M6.561 14.003H6.541H2.5H0.299999C0.139999 14.003 3.11279e-06 13.863 3.11279e-06 13.703V0.299997C3.11279e-06 0.139997 0.139999 2.01416e-06 0.299999 2.01416e-06H2.801H6.141H6.161C8.182 0.020002 9.782 1.7 9.782 3.94C9.782 5.18 9.243 6.161 8.482 6.821C9.503 7.502 10.202 8.681 10.202 10.022C10.201 12.223 8.562 13.983 6.561 14.003ZM3.08 2.721V5.721H5.32C5.6 5.721 6.72 5.541 6.72 4.221C6.72 3.841 6.46 2.721 5.281 2.721H3.08ZM7.121 9.742C7.121 8.342 5.9 8.281 5.721 8.281H4.801H3.08V11.282H5.681C6.841 11.282 7.121 10.122 7.121 9.742Z" transform="translate(54.1603 54.6116)" fill="#F2F2F2"/>
<path d="M13.1908 14.019H10.7298C10.5888 14.019 10.5098 13.939 10.4698 13.819L9.76976 12.199H3.70776L3.00776 13.84C2.96776 13.94 2.88776 14.02 2.74776 14.02H0.287758C0.127758 14.02 -0.0732361 13.84 0.026764 13.6L5.88776 0.180003C5.94776 0.0610035 6.02776 3.17383e-06 6.14776 3.17383e-06H6.94776H7.30876C7.42776 3.17383e-06 7.54776 0.0610035 7.58776 0.180003L13.4688 13.62C13.5498 13.819 13.3898 14.019 13.1908 14.019ZM8.58876 9.499L6.72876 5.197L4.88776 9.499H8.58876V9.499Z" transform="translate(66.4525 54.5956)" fill="#F2F2F2"/>
<path d="M10.982 0.320002V2.421C10.982 2.58 10.862 2.721 10.702 2.721H7.042V13.703C7.042 13.863 6.901 14.003 6.741 14.003H4.241C4.081 14.003 3.961 13.863 3.961 13.703V2.721H0.300002C0.140002 2.721 -8.54492e-07 2.58 -8.54492e-07 2.421V0.320002C-8.54492e-07 0.160002 0.140002 2.01416e-06 0.300002 2.01416e-06H4.841H6.741H10.702C10.862 2.01416e-06 10.982 0.160002 10.982 0.320002Z" transform="translate(79.8203 54.6116)" fill="#F2F2F2"/>
<path d="M110.408 33.1316C110.406 33.1286 110.406 33.1246 110.403 33.1216C101.273 22.2386 92.1443 11.3556 83.0143 0.47261C82.9193 0.31361 82.7963 0.19661 82.6463 0.13061C82.3803 -0.0363901 82.0923 -0.0363906 81.8413 0.0916094C81.7423 0.116609 81.6533 0.15961 81.5693 0.21961C75.7673 3.03161 69.9653 5.84261 64.1633 8.65461C63.8943 6.59461 63.6263 4.53461 63.3583 2.47461C63.3573 2.46661 63.3523 2.46061 63.3503 2.45261C63.2843 1.89061 62.7283 1.37561 62.0743 1.54961C61.9173 1.57161 61.7753 1.62461 61.6553 1.71261C59.5533 2.78661 57.4513 3.86061 55.3493 4.93561C53.2473 3.86161 51.1453 2.78761 49.0433 1.71361C48.9243 1.62461 48.7813 1.57261 48.6243 1.54961C47.9703 1.37561 47.4143 1.89061 47.3483 2.45261C47.3463 2.46061 47.3413 2.46661 47.3403 2.47461C47.0723 4.53461 46.8043 6.59461 46.5353 8.65461C40.7333 5.84261 34.9313 3.03161 29.1293 0.21961C29.0453 0.15861 28.9553 0.116609 28.8573 0.0916094C28.6063 -0.0363906 28.3183 -0.0363901 28.0523 0.13061C27.9023 0.19661 27.7793 0.31361 27.6843 0.47261C18.5543 11.3556 9.4253 22.2386 0.2953 33.1216C0.2923 33.1246 0.292301 33.1286 0.290301 33.1316C0.0333013 33.3626 -0.0456995 33.6676 0.0243005 33.9636C0.0453005 34.2946 0.240301 34.5916 0.616301 34.7366C0.748301 34.8126 0.888301 34.8646 1.0363 34.8676C7.2283 36.3996 13.4213 37.9306 19.6143 39.4626C19.7643 39.5326 19.9413 39.5516 20.1413 39.5126C20.1623 39.5096 20.1853 39.5096 20.2053 39.5046C20.2313 39.4976 20.2523 39.5046 20.2793 39.4956C20.3363 39.4766 20.3923 39.4576 20.4483 39.4386C20.4743 39.4286 20.5023 39.4246 20.5263 39.4126C25.3763 37.7876 30.2253 36.1626 35.0743 34.5376C41.6353 38.2516 48.1963 41.9656 54.7563 45.6786C54.8463 45.7406 54.9413 45.7816 55.0453 45.8056C55.0653 45.8126 55.0843 45.8146 55.1043 45.8206C55.1103 45.8216 55.1163 45.8246 55.1233 45.8256C55.1293 45.8266 55.1343 45.8286 55.1393 45.8296C55.1613 45.8316 55.1813 45.8436 55.2023 45.8446C55.2533 45.8516 55.3003 45.8516 55.3483 45.8506C55.3973 45.8516 55.4443 45.8516 55.4943 45.8446C55.5153 45.8436 55.5353 45.8316 55.5573 45.8296C55.5623 45.8286 55.5673 45.8266 55.5733 45.8256C55.5803 45.8246 55.5853 45.8216 55.5923 45.8206C55.6123 45.8146 55.6313 45.8126 55.6513 45.8056C55.7553 45.7816 55.8503 45.7406 55.9403 45.6786C62.5003 41.9656 69.0613 38.2516 75.6223 34.5376C80.4713 36.1626 85.3203 37.7876 90.1703 39.4126C90.1943 39.4256 90.2223 39.4286 90.2483 39.4386C90.3043 39.4576 90.3603 39.4766 90.4173 39.4956C90.4443 39.5046 90.4653 39.4976 90.4913 39.5046C90.5123 39.5086 90.5343 39.5086 90.5553 39.5126C90.7553 39.5516 90.9323 39.5326 91.0833 39.4626C97.2753 37.9306 103.468 36.3996 109.66 34.8676C109.807 34.8646 109.948 34.8126 110.08 34.7366C110.456 34.5916 110.651 34.2946 110.672 33.9636C110.744 33.6666 110.665 33.3626 110.408 33.1316ZM82.2303 5.75561C83.3343 10.6256 84.4373 15.4946 85.5423 20.3636C83.6373 19.3906 81.7313 18.4166 79.8273 17.4436C80.6283 13.5476 81.4303 9.65161 82.2303 5.75561ZM77.9833 16.5016C76.9433 15.9696 75.9023 15.4386 74.8613 14.9066C76.5933 12.0776 78.3253 9.24961 80.0563 6.42061C79.3653 9.78061 78.6753 13.1406 77.9833 16.5016ZM84.0683 4.82761C91.3033 13.4526 98.5393 22.0776 105.774 30.7026C99.8013 27.6506 93.8303 24.5986 87.8583 21.5476C86.5953 15.9736 85.3323 10.4006 84.0683 4.82761ZM73.0763 13.9936C70.5843 12.7206 68.0933 11.4476 65.6013 10.1746C70.2513 7.92161 74.9023 5.66761 79.5523 3.41461C77.3943 6.94061 75.2343 10.4676 73.0763 13.9936ZM72.0303 15.7016C67.2543 23.5036 62.4773 31.3056 57.7023 39.1066C59.8143 29.9436 61.9273 20.7806 64.0383 11.6166C66.7023 12.9786 69.3663 14.3406 72.0303 15.7016ZM55.3503 40.4176C53.0663 30.5046 50.7813 20.5926 48.4963 10.6806C50.7813 9.51361 53.0653 8.34561 55.3503 7.17861C57.6353 8.34561 59.9193 9.51361 62.2043 10.6806C59.9193 20.5926 57.6343 30.5046 55.3503 40.4176ZM52.9973 39.1076C48.2223 31.3056 43.4453 23.5036 38.6693 15.7026C41.3333 14.3406 43.9973 12.9796 46.6613 11.6186C48.7723 20.7816 50.8853 29.9446 52.9973 39.1076ZM37.6233 13.9936C35.4653 10.4676 33.3063 6.94061 31.1463 3.41361C35.7963 5.66661 40.4473 7.92061 45.0973 10.1736C42.6063 11.4476 40.1153 12.7206 37.6233 13.9936ZM30.6433 6.42061C32.3743 9.24961 34.1063 12.0776 35.8383 14.9066C34.7973 15.4386 33.7563 15.9696 32.7163 16.5016C32.0243 13.1406 31.3343 9.78061 30.6433 6.42061ZM30.8723 17.4436C28.9683 18.4176 27.0623 19.3906 25.1573 20.3636C26.2613 15.4946 27.3653 10.6256 28.4693 5.75561C29.2703 9.65161 30.0713 13.5476 30.8723 17.4436ZM22.8413 21.5476C16.8693 24.5996 10.8983 27.6516 4.9253 30.7026C12.1603 22.0776 19.3963 13.4526 26.6313 4.82761C25.3673 10.4006 24.1043 15.9736 22.8413 21.5476ZM22.2673 24.0836C21.2673 28.4946 20.2673 32.9046 19.2673 37.3156C14.1253 36.0446 8.9833 34.7716 3.8403 33.5006C9.9813 30.3616 16.1243 27.2226 22.2673 24.0836ZM24.5833 22.9006C26.8183 21.7576 29.0543 20.6156 31.2903 19.4726C32.2023 23.9096 33.1143 28.3466 34.0273 32.7826C29.8123 34.1946 25.5973 35.6076 21.3813 37.0196C22.4493 32.3136 23.5163 27.6066 24.5833 22.9006ZM36.0683 32.8006C35.0893 28.0436 34.1113 23.2876 33.1323 18.5306C34.3823 17.8916 35.6323 17.2536 36.8823 16.6146C42.0813 25.1066 47.2793 33.5986 52.4793 42.0906C47.0093 38.9936 41.5393 35.8976 36.0683 32.8006ZM73.8163 16.6146C75.0663 17.2536 76.3163 17.8916 77.5663 18.5306C76.5873 23.2876 75.6093 28.0436 74.6303 32.8006C69.1593 35.8976 63.6903 38.9936 58.2193 42.0906C63.4193 33.5986 68.6173 25.1066 73.8163 16.6146ZM79.4093 19.4726C81.6453 20.6156 83.8813 21.7576 86.1163 22.9006C87.1833 27.6076 88.2503 32.3136 89.3173 37.0206C85.1013 35.6076 80.8863 34.1956 76.6713 32.7836C77.5853 28.3456 78.4973 23.9086 79.4093 19.4726ZM91.4333 37.3156C90.4333 32.9046 89.4333 28.4946 88.4333 24.0836C94.5763 27.2226 100.718 30.3606 106.86 33.5006C101.717 34.7716 96.5743 36.0446 91.4333 37.3156ZM61.5583 4.00561C61.7483 5.47061 61.9403 6.93561 62.1303 8.40061C60.6023 7.61961 59.0723 6.83861 57.5443 6.05761C58.8823 5.37261 60.2203 4.68961 61.5583 4.00561ZM48.5693 8.39961C48.7593 6.93461 48.9513 5.46961 49.1413 4.00461C50.4793 4.68861 51.8173 5.37261 53.1553 6.05561C51.6273 6.83761 50.0983 7.61861 48.5693 8.39961Z" fill="#F2F2F2"/>
</svg>
