<?xml version="1.0" encoding="utf-8"?>
<!-- Generator: Adobe Illustrator 16.0.0, SVG Export Plug-In . SVG Version: 6.00 Build 0)  -->
<!DOCTYPE svg PUBLIC "-//W3C//DTD SVG 1.1//EN" "http://www.w3.org/Graphics/SVG/1.1/DTD/svg11.dtd">
<svg version="1.1" id="Layer_1" xmlns="http://www.w3.org/2000/svg" xmlns:xlink="http://www.w3.org/1999/xlink" x="0px" y="0px"
	 width="130px" height="90px" viewBox="0 0 130 90" enable-background="new 0 0 130 90" xml:space="preserve">
<g id="TEXT">
	<path fill="#231F20" d="M48.54,64.813l-5.041,13.402c-0.04,0.12-0.16,0.2-0.26,0.2h-1.101c-0.12,0-0.22-0.1-0.261-0.18l-2.746-6.35
		l-2.734,6.329c-0.061,0.141-0.18,0.2-0.28,0.2h-1.101c-0.1,0-0.22-0.06-0.279-0.2l-5.041-13.402c-0.061-0.24,0.119-0.4,0.279-0.4
		h2.4c0.121,0,0.221,0.1,0.261,0.2l3.001,7.882l2.474-5.951c0.04-0.14,0.181-0.2,0.28-0.2h1.4h0.06c0.14,0,0.24,0.101,0.28,0.2
		l2.467,5.951l3-7.882c0.061-0.141,0.181-0.2,0.281-0.2h2.4C48.44,64.413,48.62,64.593,48.54,64.813z"/>
	<path fill="#231F20" d="M60.678,75.995v2.121c0,0.16-0.14,0.3-0.3,0.3h-7.122h-1.46c-0.16,0-0.301-0.14-0.301-0.3V64.713
		c0-0.16,0.141-0.3,0.301-0.3h2.5h6.062c0.16,0,0.28,0.14,0.28,0.3v2.121c0,0.159-0.12,0.3-0.28,0.3h-5.781v3h3.801
		c0.16,0,0.3,0.12,0.3,0.28v2.161c0,0.159-0.14,0.279-0.3,0.279h-3.801v2.841h5.802C60.538,75.695,60.678,75.836,60.678,75.995z"/>
	<path fill="#231F20" d="M70.597,78.416h-0.02h-4.041h-2.2c-0.16,0-0.3-0.14-0.3-0.3V64.713c0-0.16,0.14-0.3,0.3-0.3h2.501h3.34
		h0.02c2.021,0.02,3.621,1.7,3.621,3.94c0,1.24-0.539,2.221-1.3,2.881c1.021,0.681,1.72,1.86,1.72,3.201
		C74.237,76.636,72.598,78.396,70.597,78.416z M67.116,67.134v3h2.24c0.28,0,1.4-0.18,1.4-1.5c0-0.38-0.26-1.5-1.439-1.5H67.116z
		 M71.157,74.155c0-1.4-1.221-1.461-1.4-1.461h-0.92h-1.721v3.001h2.601C70.877,75.695,71.157,74.535,71.157,74.155z"/>
	<path fill="#231F20" d="M89.519,78.416h-2.461c-0.141,0-0.22-0.08-0.26-0.2l-0.7-1.62h-6.062l-0.7,1.641
		c-0.04,0.1-0.12,0.18-0.26,0.18h-2.46c-0.16,0-0.361-0.18-0.261-0.42l5.861-13.42c0.06-0.119,0.14-0.18,0.26-0.18h0.8h0.361
		c0.119,0,0.239,0.061,0.279,0.18l5.881,13.44C89.878,78.216,89.718,78.416,89.519,78.416z M84.917,73.896l-1.86-4.302l-1.841,4.302
		H84.917z"/>
	<path fill="#231F20" d="M100.678,64.733v2.101c0,0.159-0.12,0.3-0.28,0.3h-3.66v10.982c0,0.16-0.141,0.3-0.301,0.3h-2.5
		c-0.16,0-0.28-0.14-0.28-0.3V67.134h-3.661c-0.16,0-0.3-0.141-0.3-0.3v-2.101c0-0.16,0.14-0.32,0.3-0.32h4.541h1.9h3.961
		C100.558,64.413,100.678,64.573,100.678,64.733z"/>
</g>
<path fill="#231F20" d="M120.284,42.933c-0.002-0.003-0.002-0.007-0.005-0.01c-9.13-10.883-18.259-21.766-27.389-32.649
	c-0.095-0.159-0.218-0.276-0.368-0.342c-0.266-0.167-0.554-0.167-0.805-0.039c-0.099,0.025-0.188,0.068-0.272,0.128
	c-5.802,2.812-11.604,5.623-17.406,8.435c-0.269-2.06-0.537-4.12-0.805-6.18c-0.001-0.008-0.006-0.014-0.008-0.022
	c-0.066-0.562-0.622-1.077-1.276-0.903c-0.157,0.022-0.299,0.075-0.419,0.163c-2.102,1.074-4.204,2.148-6.306,3.223
	c-2.102-1.074-4.204-2.148-6.306-3.222c-0.119-0.089-0.262-0.141-0.419-0.164c-0.654-0.174-1.21,0.341-1.276,0.903
	c-0.002,0.008-0.007,0.014-0.008,0.022c-0.268,2.06-0.536,4.12-0.805,6.18c-5.802-2.812-11.604-5.623-17.406-8.435
	c-0.084-0.061-0.174-0.103-0.272-0.128c-0.251-0.128-0.539-0.128-0.805,0.039c-0.15,0.066-0.273,0.183-0.368,0.342
	c-9.13,10.883-18.259,21.766-27.389,32.649c-0.003,0.003-0.003,0.007-0.005,0.01c-0.257,0.231-0.336,0.536-0.266,0.832
	c0.021,0.331,0.216,0.628,0.592,0.773c0.132,0.076,0.272,0.128,0.42,0.131c6.192,1.532,12.385,3.063,18.578,4.595
	c0.15,0.07,0.327,0.089,0.527,0.05c0.021-0.003,0.044-0.003,0.064-0.008c0.026-0.007,0.047,0,0.074-0.009
	c0.057-0.019,0.113-0.038,0.169-0.057c0.026-0.01,0.054-0.014,0.078-0.026c4.85-1.625,9.699-3.25,14.548-4.875
	c6.561,3.714,13.122,7.428,19.682,11.141c0.09,0.062,0.185,0.103,0.289,0.127c0.02,0.007,0.039,0.009,0.059,0.015
	c0.006,0.001,0.012,0.004,0.019,0.005c0.006,0.001,0.011,0.003,0.016,0.004c0.022,0.002,0.042,0.014,0.063,0.015
	c0.051,0.007,0.098,0.007,0.146,0.006c0.049,0.001,0.096,0.001,0.146-0.006c0.021-0.001,0.041-0.013,0.063-0.015
	c0.005-0.001,0.01-0.003,0.016-0.004c0.007-0.001,0.012-0.004,0.019-0.005c0.02-0.006,0.039-0.008,0.059-0.015
	c0.104-0.024,0.199-0.065,0.289-0.127c6.56-3.713,13.121-7.427,19.682-11.141c4.849,1.625,9.698,3.25,14.548,4.875
	c0.024,0.013,0.052,0.016,0.078,0.026c0.056,0.019,0.112,0.038,0.169,0.057c0.027,0.009,0.048,0.002,0.074,0.009
	c0.021,0.004,0.043,0.004,0.064,0.008c0.2,0.039,0.377,0.02,0.528-0.05c6.192-1.532,12.385-3.063,18.577-4.595
	c0.147-0.003,0.288-0.055,0.42-0.131c0.376-0.145,0.571-0.442,0.592-0.773C120.62,43.468,120.541,43.164,120.284,42.933z
	 M92.106,15.557c1.104,4.87,2.207,9.739,3.312,14.608c-1.905-0.973-3.811-1.947-5.715-2.92
	C90.504,23.349,91.306,19.453,92.106,15.557z M87.859,26.303c-1.04-0.532-2.081-1.063-3.122-1.595
	c1.732-2.829,3.464-5.657,5.195-8.486C89.241,19.582,88.551,22.942,87.859,26.303z M93.944,14.629
	c7.235,8.625,14.471,17.25,21.706,25.875c-5.973-3.052-11.944-6.104-17.916-9.155C96.471,25.775,95.208,20.202,93.944,14.629z
	 M82.952,23.795c-2.492-1.273-4.983-2.546-7.475-3.819c4.65-2.253,9.301-4.507,13.951-6.76C87.27,16.742,85.11,20.269,82.952,23.795
	z M81.906,25.503c-4.776,7.802-9.553,15.604-14.328,23.405c2.112-9.163,4.225-18.326,6.336-27.49
	C76.578,22.78,79.242,24.142,81.906,25.503z M65.226,50.219c-2.284-9.913-4.569-19.825-6.854-29.737
	c2.285-1.167,4.569-2.335,6.854-3.502c2.285,1.167,4.569,2.335,6.854,3.502C69.795,30.394,67.51,40.306,65.226,50.219z
	 M62.873,48.909c-4.775-7.802-9.552-15.604-14.328-23.405c2.664-1.362,5.328-2.723,7.992-4.084
	C58.648,30.583,60.761,39.746,62.873,48.909z M47.499,23.795c-2.158-3.526-4.317-7.053-6.477-10.58
	c4.65,2.253,9.301,4.507,13.951,6.76C52.482,21.249,49.991,22.522,47.499,23.795z M40.519,16.222
	c1.731,2.829,3.463,5.657,5.195,8.486c-1.041,0.532-2.082,1.063-3.122,1.595C41.9,22.942,41.21,19.582,40.519,16.222z
	 M40.748,27.245c-1.904,0.974-3.81,1.947-5.715,2.92c1.104-4.869,2.208-9.738,3.312-14.608
	C39.146,19.453,39.947,23.349,40.748,27.245z M32.717,31.349c-5.972,3.052-11.943,6.104-17.916,9.155
	c7.235-8.625,14.471-17.25,21.706-25.875C35.243,20.202,33.98,25.775,32.717,31.349z M32.143,33.885c-1,4.411-2,8.821-3,13.232
	c-5.142-1.271-10.284-2.544-15.427-3.815C19.857,40.163,26,37.024,32.143,33.885z M34.459,32.702
	c2.235-1.143,4.471-2.285,6.707-3.428c0.912,4.437,1.824,8.874,2.737,13.31c-4.215,1.412-8.43,2.825-12.646,4.237
	C32.325,42.115,33.392,37.408,34.459,32.702z M45.944,42.602c-0.979-4.757-1.957-9.513-2.936-14.27c1.25-0.639,2.5-1.277,3.75-1.916
	c5.199,8.492,10.397,16.984,15.597,25.476C56.885,48.795,51.415,45.699,45.944,42.602z M83.692,26.416
	c1.25,0.639,2.5,1.277,3.75,1.916c-0.979,4.757-1.957,9.513-2.936,14.27c-5.471,3.097-10.94,6.193-16.411,9.29
	C73.295,43.4,78.493,34.908,83.692,26.416z M89.285,29.274c2.236,1.143,4.472,2.285,6.707,3.428
	c1.067,4.707,2.134,9.413,3.201,14.12c-4.216-1.413-8.431-2.825-12.646-4.237C87.461,38.147,88.373,33.71,89.285,29.274z
	 M101.309,47.117c-1-4.411-2-8.821-3-13.232c6.143,3.139,12.285,6.277,18.427,9.417C111.593,44.573,106.45,45.846,101.309,47.117z
	 M71.434,13.807c0.19,1.465,0.382,2.93,0.572,4.395c-1.528-0.781-3.058-1.562-4.586-2.343
	C68.758,15.174,70.096,14.491,71.434,13.807z M58.445,18.201c0.19-1.465,0.382-2.93,0.572-4.395
	c1.338,0.684,2.676,1.368,4.014,2.051C61.503,16.639,59.974,17.42,58.445,18.201z"/>
</svg>
